<svg width="20" height="20" viewBox="0 0 20 20" fill="none" xmlns="http://www.w3.org/2000/svg">
<g clip-path="url(#clip0_0_14)">
<mask id="mask0_0_14" style="mask-type:luminance" maskUnits="userSpaceOnUse" x="-4" y="-4" width="28" height="29">
<path d="M-4 -3.99974H24V24.0002H-4V-3.99974Z" fill="white"/>
</mask>
<g mask="url(#mask0_0_14)">
<path d="M20 10.0002C20 4.47741 15.5228 0.000257492 10 0.000257492C4.47716 0.000257492 0 4.47741 0 10.0002C0 14.69 3.2286 18.6251 7.58424 19.7058V13.0561H5.52216V10.0002H7.58424V8.68349C7.58424 5.27981 9.12456 3.70222 12.4662 3.70222C13.0997 3.70222 14.1928 3.82641 14.64 3.95065V6.72081C14.404 6.69597 13.9941 6.68353 13.4848 6.68353C11.845 6.68353 11.2115 7.30465 11.2115 8.91953V10.0002H14.4778L13.9167 13.0561H11.2115V19.927C16.1629 19.329 20 15.113 20 10.0002Z" fill="#0866FF"/>
<path d="M13.918 13.0561L14.4792 10.0003H11.2128V8.91949C11.2128 7.30461 11.8463 6.68354 13.486 6.68354C13.9954 6.68354 14.4053 6.69594 14.6413 6.72078V3.95066C14.1941 3.82642 13.101 3.70218 12.4674 3.70218C9.12588 3.70218 7.58552 5.27982 7.58552 8.68349V10.0003H5.52344V13.0561H7.58552V19.7058C8.35924 19.8977 9.16824 20.0002 10.0013 20.0002C10.4114 20.0002 10.8156 19.975 11.2128 19.927V13.0561H13.918Z" fill="white"/>
</g>
</g>
<defs>
<clipPath id="clip0_0_14">
<rect width="20" height="20" fill="white"/>
</clipPath>
</defs>
</svg>
