<svg width="45" height="18" viewBox="0 0 45 18" fill="none" xmlns="http://www.w3.org/2000/svg">
<g clip-path="url(#clip0_2665_59478)">
<rect width="25.2" height="18" rx="3.6" fill="#F93939"/>
<path d="M22.8 0H2.4C1.07452 0 0 1.07452 0 2.4V15.6C0 16.9255 1.07452 18 2.4 18H22.8C24.1255 18 25.2 16.9255 25.2 15.6V2.4C25.2 1.07452 24.1255 0 22.8 0Z" fill="#F93939"/>
<path fill-rule="evenodd" clip-rule="evenodd" d="M0 0H25.2V9.6H0V0Z" fill="#1A47B8"/>
<path fill-rule="evenodd" clip-rule="evenodd" d="M0 0V18.0396L12 9L0 0Z" fill="white"/>
<path d="M3.00039 13.2C3.33176 13.2 3.60039 12.9314 3.60039 12.6C3.60039 12.2686 3.33176 12 3.00039 12C2.66902 12 2.40039 12.2686 2.40039 12.6C2.40039 12.9314 2.66902 13.2 3.00039 13.2Z" fill="#FFDA2C"/>
<path d="M9.00039 9.5999C9.33176 9.5999 9.60039 9.33127 9.60039 8.9999C9.60039 8.66853 9.33176 8.3999 9.00039 8.3999C8.66902 8.3999 8.40039 8.66853 8.40039 8.9999C8.40039 9.33127 8.66902 9.5999 9.00039 9.5999Z" fill="#FFDA2C"/>
<path fill-rule="evenodd" clip-rule="evenodd" d="M5.38239 9.5821C6.42639 9.5161 7.20039 9.2821 7.20039 9.0001C7.20039 8.7193 6.42639 8.4841 5.38239 8.4181C5.31639 7.3741 5.08239 6.6001 4.80039 6.6001C4.51959 6.6001 4.28439 7.3741 4.21839 8.4181C3.17439 8.4841 2.40039 8.7181 2.40039 9.0001C2.40039 9.2809 3.17439 9.5161 4.21839 9.5821C4.28319 10.6261 4.51839 11.4001 4.80039 11.4001C5.08119 11.4001 5.31639 10.6261 5.38239 9.5821Z" fill="#FFDA2C"/>
<path d="M3.00039 6.00005C3.33176 6.00005 3.60039 5.73142 3.60039 5.40005C3.60039 5.06868 3.33176 4.80005 3.00039 4.80005C2.66902 4.80005 2.40039 5.06868 2.40039 5.40005C2.40039 5.73142 2.66902 6.00005 3.00039 6.00005Z" fill="#FFDA2C"/>
</g>
<path fill-rule="evenodd" clip-rule="evenodd" d="M30.7432 5.85573C30.7867 5.81208 30.8385 5.77744 30.8954 5.75381C30.9523 5.73018 31.0134 5.71802 31.0751 5.71802C31.1367 5.71802 31.1978 5.73018 31.2547 5.75381C31.3117 5.77744 31.3634 5.81208 31.4069 5.85573L36.7001 11.1498L41.9932 5.85573C42.0368 5.81215 42.0885 5.77758 42.1454 5.75399C42.2024 5.7304 42.2634 5.71826 42.3251 5.71826C42.3867 5.71826 42.4477 5.7304 42.5047 5.75399C42.5616 5.77758 42.6133 5.81215 42.6569 5.85573C42.7005 5.89931 42.7351 5.95105 42.7587 6.008C42.7823 6.06494 42.7944 6.12597 42.7944 6.18761C42.7944 6.24924 42.7823 6.31027 42.7587 6.36721C42.7351 6.42416 42.7005 6.4759 42.6569 6.51948L37.0319 12.1445C36.9884 12.1881 36.9367 12.2228 36.8797 12.2464C36.8228 12.27 36.7617 12.2822 36.7001 12.2822C36.6384 12.2822 36.5773 12.27 36.5204 12.2464C36.4635 12.2228 36.4117 12.1881 36.3682 12.1445L30.7432 6.51948C30.6995 6.47594 30.6649 6.42421 30.6413 6.36726C30.6176 6.31031 30.6055 6.24926 30.6055 6.18761C30.6055 6.12595 30.6176 6.0649 30.6413 6.00795C30.6649 5.951 30.6995 5.89927 30.7432 5.85573Z" fill="#83818F"/>
<defs>
<clipPath id="clip0_2665_59478">
<rect width="25.2" height="18" rx="3.6" fill="white"/>
</clipPath>
</defs>
</svg>
