<svg width="20" height="20" viewBox="0 0 20 20" fill="none" xmlns="http://www.w3.org/2000/svg">
<path d="M17.762 6.818C17.646 6.908 15.598 8.062 15.598 10.628C15.598 13.596 18.204 14.646 18.282 14.672C18.27 14.736 17.868 16.11 16.908 17.51C16.052 18.742 15.158 19.972 13.798 19.972C12.438 19.972 12.088 19.182 10.518 19.182C8.988 19.182 8.444 19.998 7.2 19.998C5.956 19.998 5.088 18.858 4.09 17.458C2.934 15.814 2 13.26 2 10.836C2 6.948 4.528 4.886 7.016 4.886C8.338 4.886 9.44 5.754 10.27 5.754C11.06 5.754 12.292 4.834 13.796 4.834C14.366 4.834 16.414 4.886 17.762 6.818ZM13.082 3.188C13.704 2.45 14.144 1.426 14.144 0.402C14.144 0.26 14.132 0.116 14.106 0C13.094 0.038 11.89 0.674 11.164 1.516C10.594 2.164 10.062 3.188 10.062 4.226C10.062 4.382 10.088 4.538 10.1 4.588C10.164 4.6 10.268 4.614 10.372 4.614C11.28 4.614 12.422 4.006 13.082 3.188Z" fill="black"/>
</svg>
