<svg width="288" height="288" viewBox="0 0 288 288" fill="none" xmlns="http://www.w3.org/2000/svg">
<path d="M288 220.262H0V220.406H288V220.262Z" fill="#EBEBEB"/>
<path d="M259.144 225.746H206.785V225.89H259.144V225.746Z" fill="#EBEBEB"/>
<path d="M190.782 224.185H176.445V224.329H190.782V224.185Z" fill="#EBEBEB"/>
<path d="M223.552 231.097H201.324V231.241H223.552V231.097Z" fill="#EBEBEB"/>
<path d="M43.2594 230.129H30.2188V230.273H43.2594V230.129Z" fill="#EBEBEB"/>
<path d="M63.8715 230.129H48.3828V230.273H63.8715V230.129Z" fill="#EBEBEB"/>
<path d="M129.687 227.698H102.707V227.842H129.687V227.698Z" fill="#EBEBEB"/>
<path d="M136.511 194.573H25.291C24.4197 194.571 23.5846 194.224 22.9691 193.607C22.3535 192.991 22.0078 192.155 22.0078 191.284V34.9401C22.0154 34.0738 22.3645 33.2455 22.9792 32.6351C23.5939 32.0246 24.4247 31.6814 25.291 31.6799H136.511C137.383 31.6799 138.22 32.0264 138.837 32.6432C139.453 33.26 139.8 34.0966 139.8 34.9689V191.284C139.8 192.156 139.453 192.993 138.837 193.609C138.22 194.226 137.383 194.573 136.511 194.573ZM25.291 31.7951C24.4579 31.7967 23.6595 32.1287 23.0709 32.7183C22.4824 33.3079 22.1518 34.107 22.1518 34.9401V191.284C22.1518 192.117 22.4824 192.916 23.0709 193.506C23.6595 194.095 24.4579 194.427 25.291 194.429H136.511C137.344 194.427 138.144 194.095 138.733 193.506C139.322 192.916 139.654 192.117 139.656 191.284V34.9401C139.654 34.1065 139.322 33.3074 138.733 32.718C138.144 32.1285 137.344 31.7967 136.511 31.7951H25.291Z" fill="#EBEBEB"/>
<path d="M261.108 194.573H149.883C149.011 194.571 148.175 194.224 147.559 193.608C146.942 192.991 146.595 192.156 146.594 191.284V34.9401C146.603 34.0733 146.953 33.245 147.569 32.6347C148.184 32.0244 149.016 31.6814 149.883 31.6799H261.108C261.974 31.6829 262.803 32.0268 263.416 32.6371C264.03 33.2473 264.378 34.0748 264.386 34.9401V191.284C264.386 192.154 264.041 192.989 263.427 193.605C262.812 194.222 261.979 194.57 261.108 194.573ZM149.883 31.7951C149.049 31.7967 148.25 32.1285 147.661 32.718C147.071 33.3074 146.739 34.1065 146.738 34.9401V191.284C146.739 192.117 147.071 192.916 147.661 193.506C148.25 194.095 149.049 194.427 149.883 194.429H261.108C261.942 194.427 262.741 194.095 263.33 193.506C263.92 192.916 264.252 192.117 264.253 191.284V34.9401C264.252 34.1065 263.92 33.3074 263.33 32.718C262.741 32.1285 261.942 31.7967 261.108 31.7951H149.883Z" fill="#EBEBEB"/>
<path d="M245.493 216.991H256.293V157.075H245.493V216.991Z" fill="#F0F0F0"/>
<path d="M135.257 220.262L254.219 220.262V216.985L135.257 216.985V220.262Z" fill="#F0F0F0"/>
<path d="M245.492 157.069H133.184V216.985H245.492V157.069Z" fill="#F5F5F5"/>
<path d="M246.616 157.069H257.652V154.212H246.616V157.069Z" fill="#F0F0F0"/>
<path d="M246.615 154.212H131.824V157.069H246.615V154.212Z" fill="#FAFAFA"/>
<path d="M241.617 178.692H137.09V163.071H241.617V178.692ZM137.793 177.984H240.897V163.814H137.793V177.984Z" fill="#E0E0E0"/>
<path d="M241.617 210.989H137.09V183.024H241.617V210.989ZM137.793 210.24H240.897V183.744H137.793V210.24Z" fill="#E0E0E0"/>
<path d="M152.106 165.755H226.571C227.099 165.755 227.527 165.327 227.527 164.799V164.384C227.527 163.856 227.099 163.428 226.571 163.428H152.106C151.578 163.428 151.15 163.856 151.15 164.384V164.799C151.15 165.327 151.578 165.755 152.106 165.755Z" fill="#E0E0E0"/>
<path d="M152.106 185.714H226.571C227.099 185.714 227.527 185.286 227.527 184.758V184.343C227.527 183.815 227.099 183.387 226.571 183.387H152.106C151.578 183.387 151.15 183.815 151.15 184.343V184.758C151.15 185.286 151.578 185.714 152.106 185.714Z" fill="#E0E0E0"/>
<path d="M32.888 220.262H37.375L37.375 144H32.888L32.888 220.262Z" fill="#E6E6E6"/>
<path d="M31.4776 220.262H34.5938L34.5937 144H31.4776L31.4776 220.262Z" fill="#F0F0F0"/>
<path d="M83.8954 144H30.5117V149.512H83.8954V144Z" fill="#F0F0F0"/>
<path d="M85.9036 220.262H90.3906L90.3906 149.518H85.9036L85.9036 220.262Z" fill="#E6E6E6"/>
<path d="M84.4932 220.262H87.6094L87.6094 149.518H84.4932L84.4932 220.262Z" fill="#F0F0F0"/>
<path d="M114.306 220.262H118.793L118.793 149.518H114.306L114.306 220.262Z" fill="#E6E6E6"/>
<path d="M112.884 220.262H116L116 149.518H112.884L112.884 220.262Z" fill="#F0F0F0"/>
<path d="M61.2903 220.262H65.7773L65.7773 149.518H61.2903L61.2903 220.262Z" fill="#E6E6E6"/>
<path d="M59.876 220.262H62.9922L62.9922 149.518H59.876L59.876 220.262Z" fill="#F0F0F0"/>
<path d="M83.8989 149.512H118.793V144H83.8989V149.512Z" fill="#E6E6E6"/>
<path d="M79.371 101.359H36.2344L40.0533 67.968H75.5521L79.371 101.359Z" fill="#EBEBEB"/>
<path d="M60.1514 101.359H55.457V144H60.1514V101.359Z" fill="#F5F5F5"/>
<path d="M67.3921 144H48.2344C48.2344 143.459 48.4492 142.941 48.8316 142.558C49.214 142.176 49.7326 141.961 50.2734 141.961H65.3358C65.605 141.959 65.872 142.01 66.1214 142.111C66.3708 142.213 66.5976 142.363 66.7888 142.552C66.98 142.742 67.1317 142.967 67.2353 143.216C67.3388 143.464 67.3921 143.731 67.3921 144Z" fill="#F0F0F0"/>
<path d="M60.1514 105.051L55.457 102.81V101.359H60.1514V105.051Z" fill="#E0E0E0"/>
<path d="M77.9844 143.879H98.2423L100.748 116.364H80.49L77.9844 143.879Z" fill="#E6E6E6"/>
<path d="M76.9375 143.879H97.1954L99.701 116.364H79.4431L76.9375 143.879Z" fill="#F0F0F0"/>
<path d="M94.4256 140.832L96.3782 119.41H82.2144L80.2617 140.832H94.4256Z" fill="white"/>
<path d="M244.68 124.145H203.559L195.559 152.64H236.679L244.68 124.145Z" fill="#E6E6E6"/>
<path d="M236.68 152.64L236.519 154.212H195.387L195.554 152.64H236.68Z" fill="#E6E6E6"/>
<path d="M243.416 124.145H202.29L194.289 152.64H235.415L243.416 124.145Z" fill="#F0F0F0"/>
<path d="M234.951 150.78L241.569 126.104C241.662 125.752 241.483 125.447 241.183 125.447H203.375C203.223 125.465 203.082 125.53 202.97 125.634C202.858 125.737 202.782 125.874 202.753 126.023L196.14 150.682C196.042 151.033 196.221 151.338 196.52 151.338H234.329C234.479 151.323 234.619 151.261 234.731 151.16C234.843 151.06 234.92 150.927 234.951 150.78Z" fill="white"/>
<path d="M224.698 152.64L224.531 154.212H179.246L179.413 152.64H224.698Z" fill="#F0F0F0"/>
<path d="M253.197 49.7893H153.422V111.369H253.197V49.7893Z" fill="#F0F0F0"/>
<path d="M250.365 52.6233H156.258V108.541H250.365V52.6233Z" fill="white"/>
<path d="M253.199 111.375H254.219V49.7951H253.199V111.375Z" fill="#E6E6E6"/>
<path d="M144.001 246.275C205.68 246.275 255.682 243.355 255.682 239.754C255.682 236.153 205.68 233.234 144.001 233.234C82.3214 233.234 32.3203 236.153 32.3203 239.754C32.3203 243.355 82.3214 246.275 144.001 246.275Z" fill="#F5F5F5"/>
<path d="M121.208 40.32C123.896 37.9276 127.377 36.3609 131.651 35.6198C135.925 34.8787 140.443 35.3491 145.205 37.031C149.951 38.7129 154.292 41.7504 158.228 46.1433C161.887 50.2291 164.36 54.5088 165.647 58.9824C166.93 63.1192 167.048 67.5299 165.987 71.7292C164.979 75.6217 162.833 79.1252 159.823 81.792C157.682 83.7998 155.069 85.236 152.226 85.968C149.687 86.6002 147.067 86.8411 144.456 86.6822C141.948 86.5209 137.597 86.0928 131.404 85.3977C129.954 85.24 128.496 85.1592 127.037 85.1558C126.039 85.1492 125.043 85.2633 124.071 85.4956C123.3 85.6921 122.552 85.9662 121.836 86.3136C121.145 86.6534 119.976 87.2812 118.317 88.2086C114.907 90.2937 111.942 89.9289 109.423 87.1142C108.798 86.4486 108.31 85.6656 107.989 84.8104C107.667 83.9552 107.519 83.0448 107.551 82.1318C107.617 80.2771 108.592 78.5049 110.477 76.8153C114.318 73.1354 119.462 71.13 124.78 71.2396C127.807 71.3407 130.827 71.5944 133.829 72C137.02 72.3859 139.375 72.6278 140.896 72.7085C142.406 72.7947 143.92 72.6687 145.395 72.334C146.866 72.0081 148.226 71.3032 149.34 70.2892C150.431 69.3426 151.304 68.1716 151.9 66.8564C152.497 65.5413 152.802 64.1129 152.796 62.6688C152.842 59.5968 151.69 56.7417 149.34 54.1036C146.564 51.0048 143.74 49.4246 140.867 49.3632C137.995 49.3017 134.575 50.1273 130.609 51.84C126.573 53.7331 123.357 53.3491 120.961 50.688C120.279 49.957 119.757 49.0916 119.429 48.1474C119.1 47.2032 118.973 46.2008 119.054 45.2044C119.071 44.2881 119.271 43.3844 119.641 42.5458C120.01 41.7073 120.543 40.9507 121.208 40.32ZM93.3645 102.349C91.8594 100.714 91.0192 98.5757 91.0087 96.3532C90.9741 94.08 91.9553 92.0467 93.9521 90.2534C94.7738 89.4934 95.7443 88.912 96.8021 88.5462C97.86 88.1804 98.9823 88.038 100.098 88.128C101.228 88.1963 102.333 88.4916 103.346 88.9964C104.36 89.5011 105.261 90.2048 105.996 91.0656C106.752 91.8842 107.336 92.8464 107.713 93.8951C108.09 94.9438 108.253 96.0576 108.191 97.1703C108.129 98.283 107.845 99.372 107.354 100.372C106.863 101.373 106.176 102.265 105.334 102.995C103.364 104.757 101.252 105.51 98.9978 105.252C96.8201 105.033 94.8068 103.996 93.3645 102.349Z" fill="#34227C"/>
<g opacity="0.5">
<path d="M172.713 78.9407C173.522 77.019 174.863 75.3683 176.578 74.183C178.594 72.7469 180.947 71.8578 183.409 71.6025C186.277 71.2939 189.177 71.718 191.836 72.8351C194.348 73.7645 196.617 75.2514 198.471 77.1839C200.079 78.8563 201.195 80.9387 201.697 83.2031C202.16 85.3195 201.98 87.5261 201.179 89.5391C200.635 91.0157 199.728 92.3312 198.541 93.3638C197.477 94.2775 196.281 95.0234 194.992 95.5756C193.756 96.1017 191.569 96.9426 188.432 98.0985C187.698 98.3676 186.981 98.6792 186.283 99.0316C185.803 99.2671 185.355 99.5611 184.947 99.9071C184.623 100.184 184.33 100.495 184.071 100.834C183.824 101.163 183.415 101.745 182.845 102.562C181.693 104.383 180.185 104.92 178.323 104.175C177.863 104.007 177.441 103.749 177.081 103.417C176.722 103.085 176.431 102.685 176.226 102.24C176.021 101.719 175.926 101.162 175.948 100.602C175.97 100.043 176.108 99.4943 176.353 98.9913C177.308 96.3074 179.288 94.1117 181.86 92.8857C183.331 92.2002 184.837 91.5888 186.37 91.054C187.988 90.478 189.175 90.023 189.924 89.7004C190.666 89.3781 191.361 88.9535 191.986 88.439C192.612 87.928 193.094 87.263 193.385 86.5094C193.68 85.7947 193.817 85.0246 193.786 84.2521C193.756 83.4795 193.558 82.7228 193.207 82.0338C192.436 80.5176 191.109 79.3578 189.503 78.7967C187.43 77.9788 185.702 77.9001 184.319 78.5606C182.641 79.4539 181.172 80.695 180.011 82.2009C178.528 84.0787 176.893 84.6547 175.103 83.9289C174.601 83.7412 174.144 83.4512 173.76 83.0774C173.377 82.7036 173.075 82.2541 172.874 81.7574C172.662 81.322 172.538 80.8488 172.51 80.3653C172.483 79.8817 172.552 79.3975 172.713 78.9407ZM174.285 115.344C173.172 114.922 172.256 114.101 171.716 113.04C171.44 112.482 171.29 111.87 171.278 111.248C171.266 110.625 171.392 110.008 171.647 109.44C171.855 108.877 172.178 108.363 172.595 107.931C173.013 107.5 173.516 107.16 174.072 106.934C174.63 106.696 175.231 106.573 175.838 106.573C176.444 106.573 177.045 106.696 177.603 106.934C178.162 107.145 178.672 107.465 179.105 107.876C179.537 108.288 179.883 108.782 180.121 109.329C180.359 109.877 180.484 110.466 180.49 111.063C180.496 111.66 180.382 112.252 180.155 112.804C179.956 113.395 179.628 113.935 179.196 114.385C178.764 114.835 178.238 115.184 177.655 115.407C176.564 115.812 175.36 115.79 174.285 115.344Z" fill="#34227C"/>
</g>
<g opacity="0.1">
<path d="M211.458 75.548C210.937 74.7283 210.659 73.7775 210.657 72.8063C210.638 71.6555 210.92 70.5197 211.475 69.5115C212.116 68.3374 213.046 67.3461 214.177 66.6315C215.197 65.9135 216.367 65.4368 217.598 65.2376C218.665 65.0647 219.759 65.1882 220.76 65.5947C221.698 65.9745 222.501 66.6265 223.064 67.4667C223.487 68.0651 223.753 68.7604 223.836 69.4885C223.902 70.1365 223.871 70.7908 223.744 71.4296C223.617 72.0479 223.36 73.1077 222.972 74.6091C222.885 74.9625 222.815 75.3201 222.765 75.6805C222.698 76.1242 222.733 76.5774 222.868 77.0053C222.932 77.1896 223.047 77.5007 223.22 77.9384C223.325 78.1178 223.393 78.3162 223.421 78.5222C223.449 78.7282 223.436 78.9377 223.382 79.1386C223.329 79.3395 223.236 79.5277 223.109 79.6925C222.982 79.8572 222.824 79.9952 222.644 80.0984C222.269 80.3616 221.805 80.4652 221.353 80.3864C221.099 80.329 220.859 80.2189 220.65 80.0631C220.441 79.9074 220.266 79.7094 220.138 79.4821C219.732 78.9075 219.446 78.2571 219.297 77.5698C219.178 76.9739 219.164 76.3617 219.257 75.7611C219.381 75.0158 219.545 74.2775 219.746 73.5493C219.954 72.7717 220.092 72.2015 220.167 71.8213C220.239 71.4418 220.261 71.0544 220.23 70.6693C220.197 70.2935 220.068 69.9326 219.856 69.621C219.659 69.3198 219.4 69.0646 219.096 68.8727C218.792 68.6809 218.45 68.5569 218.093 68.5093C217.302 68.4015 216.499 68.6083 215.858 69.0853C215.495 69.2873 215.177 69.5626 214.925 69.8937C214.673 70.2249 214.493 70.6047 214.395 71.0091C214.295 71.8893 214.384 72.7808 214.655 73.6242C214.983 74.6898 214.77 75.4674 214.027 75.9685C213.823 76.1107 213.592 76.2092 213.348 76.2578C213.104 76.3063 212.853 76.3039 212.61 76.2507C212.38 76.2169 212.16 76.1372 211.962 76.0165C211.764 75.8958 211.593 75.7364 211.458 75.548ZM225.829 84.5682C225.372 84.8805 224.817 85.0137 224.268 84.9426C223.978 84.9014 223.702 84.7956 223.458 84.6331C223.215 84.4706 223.012 84.2555 222.863 84.0037C222.702 83.7755 222.59 83.5164 222.534 83.2427C222.479 82.969 222.481 82.6868 222.54 82.4139C222.596 82.1369 222.707 81.8738 222.866 81.6403C223.025 81.4068 223.23 81.2077 223.467 81.0546C223.696 80.8956 223.954 80.7845 224.226 80.7281C224.498 80.6717 224.779 80.671 225.051 80.7263C225.325 80.7768 225.586 80.8831 225.817 81.0387C226.047 81.1943 226.244 81.3958 226.393 81.6306C226.567 81.8636 226.688 82.1319 226.746 82.4165C226.805 82.7012 226.801 82.9952 226.733 83.2779C226.604 83.8061 226.281 84.2665 225.829 84.5682Z" fill="#34227C"/>
</g>
<path d="M107.015 235.941L102.66 234.812L105.258 224.853L109.612 225.982L107.015 235.941Z" fill="#FFC3BD"/>
<path d="M102.617 233.66L107.478 235.198C107.518 235.208 107.556 235.226 107.59 235.251C107.623 235.276 107.651 235.307 107.672 235.343C107.693 235.379 107.706 235.419 107.712 235.46C107.717 235.502 107.714 235.544 107.703 235.584L106.677 239.357C106.605 239.555 106.46 239.717 106.271 239.811C106.082 239.904 105.865 239.921 105.664 239.858C103.982 239.282 103.204 238.948 101.056 238.268C99.7366 237.853 96.5571 236.914 94.7196 236.338C92.8822 235.762 93.5676 234.034 94.3683 234.144C98.0662 234.53 100.215 234.219 101.753 233.683C102.03 233.58 102.334 233.572 102.617 233.66Z" fill="#263238"/>
<path opacity="0.2" d="M109.613 225.988L105.258 224.859L103.922 229.991L108.276 231.12L109.613 225.988Z" fill="black"/>
<path d="M120.587 124.145C120.587 124.145 112.616 162.029 110.496 174.43C108.192 188.012 103.129 226.898 103.129 226.898L110.531 229.588C110.531 229.588 122.114 188.352 123.871 175.294C127.551 162.53 136.877 124.145 136.877 124.145H120.587Z" fill="#34227C"/>
<path opacity="0.3" d="M130.821 136.512C128.234 142.721 127.295 154.028 127.745 160.79C129.795 152.807 132.07 143.689 133.833 136.546C133.263 134.582 132.479 132.52 130.821 136.512Z" fill="black"/>
<path d="M110.379 230.463L102.441 228.171L102.741 224.813L112.187 227.468L110.379 230.463Z" fill="#263238"/>
<path d="M100.828 233.902C101.221 234.015 101.625 234.086 102.032 234.115C102.053 234.119 102.074 234.116 102.093 234.106C102.111 234.097 102.126 234.082 102.136 234.063C102.147 234.047 102.153 234.028 102.153 234.009C102.153 233.989 102.147 233.97 102.136 233.954C102.027 233.816 101.076 232.623 100.483 232.658C100.415 232.661 100.348 232.68 100.29 232.716C100.231 232.751 100.183 232.8 100.149 232.86C100.09 232.942 100.054 233.039 100.045 233.141C100.036 233.242 100.054 233.343 100.097 233.436C100.275 233.675 100.536 233.841 100.828 233.902ZM101.808 233.902C100.978 233.804 100.419 233.603 100.281 233.326C100.254 233.266 100.244 233.2 100.253 233.135C100.261 233.07 100.287 233.009 100.327 232.957C100.343 232.928 100.367 232.903 100.395 232.885C100.423 232.867 100.455 232.856 100.489 232.854C100.8 232.842 101.41 233.424 101.808 233.891V233.902Z" fill="#34227C"/>
<path d="M102.011 234.115H102.063C102.08 234.113 102.096 234.106 102.11 234.096C102.124 234.086 102.136 234.073 102.143 234.058C102.143 234.006 102.673 232.836 102.374 232.295C102.333 232.226 102.278 232.166 102.212 232.119C102.147 232.073 102.072 232.04 101.994 232.024C101.907 231.999 101.815 232.003 101.731 232.035C101.646 232.068 101.575 232.126 101.527 232.203C101.268 232.629 101.619 233.7 101.965 234.081C101.976 234.097 101.992 234.109 102.011 234.115ZM102.011 232.237C102.051 232.249 102.087 232.269 102.119 232.296C102.151 232.323 102.177 232.356 102.195 232.393C102.299 232.869 102.241 233.366 102.028 233.804C101.758 233.378 101.55 232.583 101.723 232.307C101.723 232.255 101.809 232.197 101.959 232.226L102.011 232.237Z" fill="#34227C"/>
<path d="M126.754 91.6992C126.368 92.6323 125.999 93.4618 125.602 94.3143C125.205 95.1667 124.778 96.0019 124.346 96.8371C123.471 98.5018 122.549 100.143 121.535 101.745C119.518 105.073 117.079 108.126 114.278 110.828L114.174 110.932C114.027 111.064 113.865 111.178 113.69 111.272C113.211 111.53 112.684 111.689 112.141 111.738C111.83 111.76 111.518 111.76 111.208 111.738C110.743 111.708 110.281 111.645 109.825 111.548C109.007 111.375 108.282 111.162 107.567 110.938C106.151 110.488 104.831 109.941 103.535 109.388C102.239 108.835 100.961 108.236 99.7051 107.585C98.4494 106.934 97.2168 106.284 95.9956 105.546C95.7125 105.373 95.5003 105.105 95.3971 104.79C95.294 104.474 95.3068 104.133 95.4331 103.826C95.5594 103.519 95.7911 103.267 96.0863 103.116C96.3816 102.965 96.7211 102.924 97.044 103C99.7166 103.645 102.383 104.365 105.01 105.005C106.318 105.333 107.625 105.621 108.881 105.863C109.473 105.983 110.071 106.069 110.672 106.122C110.898 106.135 111.125 106.135 111.352 106.122C111.438 106.122 111.473 106.122 111.45 106.122C111.245 106.128 111.046 106.19 110.874 106.301L110.298 106.744C111.412 105.511 112.445 104.206 113.391 102.839C114.359 101.439 115.274 99.9591 116.156 98.473C117.037 96.9869 117.884 95.4259 118.684 93.865C119.485 92.304 120.28 90.697 120.988 89.1936L121.023 89.1187C121.363 88.3549 121.992 87.7574 122.773 87.4576C123.553 87.1579 124.421 87.1804 125.184 87.5203C125.948 87.8602 126.546 88.4896 126.846 89.2701C127.145 90.0505 127.123 90.9181 126.783 91.6819L126.754 91.6992Z" fill="#FFC3BD"/>
<path d="M125.87 85.6052C122.16 85.7089 119.614 89.7351 117.184 94.7521C119.047 97.9729 121.717 100.653 124.931 102.528C124.931 102.528 134.677 85.3575 125.87 85.6052Z" fill="#E0E0E0"/>
<path d="M95.8135 105.569L92.4727 104.717L95.0762 101.37C95.0762 101.37 97.9562 101.825 99.0506 104.25L97.864 105.097C97.5762 105.318 97.244 105.475 96.8902 105.556C96.5364 105.638 96.1691 105.642 95.8135 105.569Z" fill="#FFC3BD"/>
<path d="M91.6602 101.295L92.3053 100.719C92.5692 100.488 92.9062 100.357 93.257 100.35C93.6078 100.343 93.9499 100.459 94.2234 100.679L95.0758 101.364L92.4723 104.711L91.4067 103.052C91.2302 102.778 91.1587 102.449 91.2053 102.126C91.2518 101.804 91.4134 101.508 91.6602 101.295Z" fill="#FFC3BD"/>
<path d="M145.992 235.423H141.436L140.348 225.274H144.904L145.992 235.423Z" fill="#FFC3BD"/>
<path d="M141.04 234.916H146.161C146.245 234.911 146.328 234.94 146.392 234.996C146.455 235.052 146.494 235.131 146.5 235.215L146.748 239.109C146.744 239.318 146.657 239.518 146.508 239.664C146.358 239.81 146.157 239.892 145.947 239.892C144.168 239.858 143.315 239.76 141.063 239.76C139.681 239.76 135.879 239.898 133.949 239.898C132.02 239.898 132.089 238.078 132.901 237.917C136.536 237.174 138.966 236.154 140.257 235.187C140.481 235.013 140.756 234.917 141.04 234.916Z" fill="#263238"/>
<path opacity="0.2" d="M144.904 225.274H140.348L140.912 230.51H145.468L144.904 225.274Z" fill="black"/>
<path d="M129.492 124.145C129.492 124.145 130.5 162.23 131.22 174.781C132.027 188.525 138.852 229.242 138.852 229.242H147.204C147.204 229.242 145.373 188.006 143.99 174.522C144.566 159.754 144.946 124.134 144.946 124.134L129.492 124.145Z" fill="#34227C"/>
<path d="M147.54 229.242H138.07L137.621 226.195L147.793 226.368L147.54 229.242Z" fill="#263238"/>
<path d="M139.426 235.676C139.836 235.667 140.243 235.615 140.641 235.521C140.661 235.517 140.679 235.507 140.692 235.493C140.706 235.478 140.714 235.46 140.716 235.44C140.722 235.421 140.721 235.4 140.714 235.381C140.706 235.363 140.693 235.347 140.676 235.336C140.532 235.244 139.242 234.392 138.683 234.605C138.621 234.628 138.565 234.666 138.522 234.717C138.479 234.767 138.449 234.828 138.435 234.893C138.399 234.991 138.393 235.098 138.416 235.201C138.44 235.303 138.492 235.396 138.568 235.469C138.82 235.638 139.124 235.712 139.426 235.676ZM140.348 235.377C139.53 235.532 138.931 235.503 138.718 235.302C138.674 235.254 138.644 235.195 138.63 235.131C138.617 235.067 138.621 235.001 138.643 234.939C138.648 234.907 138.662 234.877 138.682 234.852C138.702 234.827 138.728 234.807 138.758 234.795C139.057 234.68 139.818 235.048 140.348 235.377Z" fill="#34227C"/>
<path d="M140.613 235.526H140.665C140.68 235.517 140.693 235.505 140.703 235.49C140.713 235.475 140.72 235.458 140.722 235.44C140.722 235.388 140.826 234.127 140.365 233.712C140.306 233.655 140.235 233.614 140.157 233.59C140.079 233.566 139.997 233.56 139.916 233.574C139.827 233.575 139.741 233.605 139.671 233.661C139.601 233.716 139.552 233.793 139.53 233.879C139.426 234.357 140.106 235.273 140.561 235.532L140.613 235.526ZM139.968 233.746C140.011 233.745 140.053 233.753 140.093 233.769C140.132 233.784 140.168 233.808 140.198 233.839C140.45 234.257 140.556 234.748 140.498 235.233C140.1 234.91 139.645 234.213 139.714 233.902C139.714 233.839 139.766 233.769 139.922 233.752L139.968 233.746Z" fill="#34227C"/>
<path d="M122.507 88.5368C122.752 87.7911 123.195 87.1253 123.786 86.6094C124.378 86.0935 125.098 85.7466 125.871 85.605C126.996 85.3424 128.137 85.1501 129.286 85.029C132.74 84.8383 136.201 84.8383 139.654 85.029C141.463 85.1096 143.306 85.3227 144.775 85.5301H144.827C145.204 85.574 145.569 85.6942 145.898 85.8835C146.227 86.0728 146.515 86.3272 146.743 86.6311C146.971 86.935 147.134 87.2822 147.224 87.6514C147.313 88.0206 147.327 88.4042 147.263 88.7787C146.113 94.6484 145.361 100.589 145.011 106.56C144.654 115.234 145.138 122.043 144.965 124.134H120.589C119.108 102.977 121.021 93.3579 122.507 88.5368Z" fill="#E0E0E0"/>
<path d="M141.306 72.121C141.731 72.428 142.069 72.8402 142.287 73.3172C142.505 73.7942 142.596 74.3197 142.55 74.8422C142.504 75.3647 142.323 75.8663 142.025 76.298C141.728 76.7297 141.323 77.0767 140.851 77.305C141.835 78.9351 139.215 81.8151 136.577 80.0064C133.939 78.1978 137.665 70.5831 141.306 72.121Z" fill="#263238"/>
<path d="M130.396 70.3698C130.034 70.3805 129.675 70.297 129.355 70.1276C129.035 69.9581 128.765 69.7084 128.57 69.403C128.376 69.0976 128.264 68.7469 128.246 68.3853C128.227 68.0237 128.303 67.6635 128.466 67.34C127.239 66.862 127.458 64.1836 129.67 64.0684C131.882 63.9532 133.022 69.6959 130.396 70.3698Z" fill="#263238"/>
<path d="M129.676 87.2929C129.511 87.1416 129.388 86.95 129.32 86.7369C129.251 86.5239 129.239 86.2967 129.285 86.0776C129.331 85.8586 129.433 85.6553 129.581 85.4876C129.73 85.32 129.919 85.1937 130.131 85.1214C132.354 84.3034 132.757 82.6906 132.579 80.9338C132.528 80.4398 132.447 79.9494 132.337 79.465L136.11 76.4526L138.886 74.2407C138.195 77.1207 137.423 82.1377 138.886 84.6778C139.05 84.9436 139.113 85.2593 139.065 85.5678C139.016 85.8763 138.859 86.1573 138.621 86.3598C137.665 87.2065 135.706 88.3009 132.481 88.1281C131 88.0532 130.177 87.7134 129.676 87.2929Z" fill="#FFC3BD"/>
<path d="M121.253 88.6406C121.528 87.8113 122.013 87.0669 122.659 86.4796C123.306 85.8923 124.094 85.482 124.946 85.2883C126.039 85.1147 127.141 84.9993 128.246 84.9427C128.362 84.9261 128.479 84.9385 128.589 84.9788C128.698 85.019 128.796 85.0859 128.873 85.1733C128.95 85.2608 129.004 85.366 129.031 85.4796C129.057 85.5932 129.055 85.7115 129.024 85.824C127.094 92.9894 124.341 107.326 125.193 125.084C125.197 125.195 125.179 125.305 125.138 125.408C125.098 125.511 125.038 125.605 124.96 125.683C124.882 125.762 124.789 125.824 124.687 125.866C124.584 125.907 124.474 125.928 124.364 125.925H119.525C119.316 125.929 119.112 125.852 118.957 125.711C118.802 125.569 118.706 125.374 118.69 125.165C117.233 103.467 119.808 92.6553 121.253 88.6406Z" fill="#263238"/>
<path d="M144.641 85.0981C143.092 84.8763 141.533 84.734 139.969 84.6719C139.686 84.6513 139.405 84.7313 139.176 84.8978C138.946 85.0643 138.782 85.3066 138.714 85.582C136.922 93.4732 135.327 111.007 135.258 125.113C135.26 125.22 135.283 125.326 135.327 125.425C135.37 125.523 135.432 125.612 135.51 125.686C135.587 125.761 135.679 125.819 135.779 125.858C135.879 125.897 135.986 125.916 136.093 125.913H144.733C144.947 125.918 145.154 125.839 145.311 125.692C145.467 125.546 145.559 125.344 145.568 125.13C145.626 122.29 145.234 115.638 145.568 107.378C145.888 101.492 146.627 95.6364 147.78 89.8559C148.08 88.2373 146.352 85.34 144.641 85.0981Z" fill="#263238"/>
<path d="M147.678 87.6037C149.527 90.3915 151.209 93.1851 152.799 96.117C153.582 97.5858 154.354 99.0776 155.051 100.644C155.396 101.428 155.736 102.228 156.053 103.075C156.402 103.991 156.672 104.935 156.859 105.897C157.001 106.599 157.033 107.318 156.952 108.029C156.858 108.604 156.709 109.169 156.508 109.716C156.18 110.609 155.777 111.472 155.304 112.297C154.456 113.793 153.512 115.232 152.476 116.605C150.484 119.264 148.305 121.778 145.956 124.128C145.684 124.4 145.323 124.563 144.939 124.585C144.555 124.608 144.177 124.489 143.875 124.251C143.574 124.012 143.37 123.672 143.304 123.293C143.237 122.915 143.312 122.525 143.514 122.198V122.164C145.19 119.462 146.883 116.709 148.415 113.979C149.176 112.619 149.901 111.237 150.483 109.901C151.065 108.564 151.491 107.101 151.192 107.061C151.008 106.448 150.785 105.848 150.523 105.264C150.235 104.607 149.907 103.928 149.562 103.254C148.859 101.9 148.104 100.523 147.315 99.1698C145.737 96.4511 144.055 93.7093 142.39 91.0539V91.0194C141.937 90.3182 141.782 89.4658 141.957 88.6497C142.133 87.8336 142.625 87.1207 143.326 86.6677C144.028 86.2148 144.88 86.0589 145.696 86.2344C146.512 86.41 147.225 86.9025 147.678 87.6037Z" fill="#FFC3BD"/>
<path d="M144.095 85.0233C147.804 84.9542 149.768 88.0934 152.199 93.0873C149.446 98.1849 144.193 100.391 144.193 100.391C144.193 100.391 136.803 85.1501 144.095 85.0233Z" fill="#E0E0E0"/>
<path d="M142.192 122.049L140.055 122.728L144.012 125.735C144.012 125.735 147.249 124.053 146.235 122.527L145.579 122.233C144.51 121.761 143.305 121.696 142.192 122.049Z" fill="#FFC3BD"/>
<path d="M138.858 125.366L141.26 127.78C141.338 127.856 141.43 127.914 141.532 127.952C141.634 127.99 141.742 128.007 141.85 128.001C141.959 127.995 142.064 127.967 142.161 127.918C142.258 127.869 142.343 127.8 142.412 127.716L144.008 125.735L140.051 122.728L138.818 124.416C138.704 124.551 138.646 124.723 138.653 124.899C138.66 125.075 138.734 125.242 138.858 125.366Z" fill="#FFC3BD"/>
<path opacity="0.2" d="M132.336 79.4881C132.446 79.9724 132.527 80.4629 132.578 80.9569C134.006 81.3197 136.034 79.6839 136.224 78.2957C136.248 77.6867 136.21 77.0767 136.109 76.4756L132.336 79.4881Z" fill="black"/>
<path d="M141.255 70.1511C140.282 74.4019 139.936 76.9363 137.321 78.8314C136.465 79.457 135.459 79.8448 134.405 79.9552C133.351 80.0655 132.287 79.8945 131.32 79.4595C130.354 79.0246 129.52 78.3413 128.904 77.4791C128.287 76.617 127.91 75.6069 127.811 74.5517C127.477 70.5658 129.124 64.2816 133.779 63.1642C138.433 62.0467 142.228 65.8944 141.255 70.1511Z" fill="#FFC3BD"/>
<path d="M139.283 73.872C138.05 73.9353 136.737 69.5865 139.455 67.4899C139.023 67.726 137.843 67.294 138.05 66.4819C137.249 66.816 133.747 66.672 134.594 65.2492C132.814 65.71 128.932 64.9382 128.517 63.239C128.102 61.5398 130.107 61.4822 130.418 61.7068C129.537 60.4742 129.554 58.6656 131.893 58.0089C134.231 57.3523 137.756 60.7334 137.756 60.7334C137.388 59.8406 138.684 59.1206 140.026 59.8867C141.368 60.6528 141.996 62.83 141.996 62.83C141.996 62.1734 145.129 63.0547 143.643 65.808C145.181 66.384 145.884 67.2019 145.786 68.6246C145.688 70.0473 144.714 70.128 144.714 70.128C144.92 70.6402 144.949 71.2066 144.795 71.737C144.642 72.2673 144.315 72.731 143.868 73.054C142.272 74.3385 140.878 72.8294 139.283 73.872Z" fill="#263238"/>
<path d="M141.726 74.2002C141.184 74.993 140.384 75.5732 139.462 75.8418C138.276 76.1586 137.872 75.0988 138.356 73.9929C138.794 72.9964 139.935 71.6255 141.052 71.7983C142.169 71.9711 142.394 73.2095 141.726 74.2002Z" fill="#FFC3BD"/>
<path d="M134.208 69.9783C134.151 70.3239 133.909 70.5831 133.673 70.5543C133.437 70.5255 133.287 70.2145 133.344 69.8631C133.402 69.5117 133.644 69.2871 133.88 69.2871C134.116 69.2871 134.237 69.6269 134.208 69.9783Z" fill="#263238"/>
<path d="M129.992 69.2122C129.934 69.5636 129.698 69.8228 129.462 69.7882C129.226 69.7536 129.076 69.4484 129.133 69.097C129.191 68.7456 129.427 68.521 129.663 68.521C129.9 68.521 130.049 68.8666 129.992 69.2122Z" fill="#263238"/>
<path d="M131.659 69.9956C131.045 71.0093 130.295 71.9337 129.43 72.7431C129.654 72.9537 129.92 73.1141 130.211 73.2134C130.502 73.3128 130.811 73.3488 131.117 73.3191L131.659 69.9956Z" fill="#ED847E"/>
<path d="M131.865 75.0356C132.284 75.0829 132.708 75.0462 133.113 74.9275C133.517 74.8088 133.894 74.6106 134.221 74.3444C134.24 74.3241 134.251 74.2973 134.251 74.2695C134.251 74.2417 134.24 74.2149 134.221 74.1946C134.2 74.1768 134.174 74.167 134.146 74.167C134.119 74.167 134.092 74.1768 134.071 74.1946C133.712 74.4799 133.292 74.68 132.844 74.7797C132.397 74.8795 131.932 74.8764 131.485 74.7706C131.472 74.7673 131.457 74.7667 131.444 74.7689C131.43 74.7712 131.416 74.7763 131.405 74.7838C131.393 74.7913 131.382 74.8012 131.375 74.8128C131.367 74.8244 131.361 74.8375 131.358 74.8513C131.355 74.8646 131.355 74.8784 131.357 74.8919C131.359 74.9054 131.364 74.9183 131.372 74.9297C131.38 74.9411 131.389 74.9508 131.401 74.9581C131.413 74.9654 131.426 74.9702 131.439 74.9722C131.579 75.0038 131.722 75.0249 131.865 75.0356Z" fill="#263238"/>
<path d="M134.382 67.5822C134.348 67.5914 134.316 67.6092 134.29 67.634C134.27 67.6528 134.254 67.6756 134.243 67.7009C134.232 67.7261 134.227 67.7534 134.227 67.7809C134.227 67.8084 134.232 67.8356 134.243 67.8609C134.254 67.8861 134.27 67.9089 134.29 67.9278C134.514 68.1786 134.796 68.3714 135.111 68.4897C135.426 68.6081 135.765 68.6485 136.099 68.6074C136.126 68.6047 136.153 68.5963 136.177 68.5827C136.202 68.5691 136.223 68.5506 136.24 68.5284C136.256 68.5062 136.268 68.4808 136.275 68.4538C136.281 68.4267 136.282 68.3986 136.277 68.3713C136.272 68.3436 136.262 68.3172 136.247 68.2936C136.232 68.2699 136.212 68.2495 136.189 68.2334C136.166 68.2174 136.14 68.206 136.113 68.2C136.086 68.194 136.057 68.1935 136.03 68.1985C135.765 68.2218 135.5 68.1817 135.254 68.0815C135.009 67.9813 134.791 67.8239 134.618 67.6225C134.587 67.5947 134.548 67.5763 134.506 67.5692C134.464 67.5621 134.422 67.5666 134.382 67.5822Z" fill="#263238"/>
<path d="M128.8 66.5395C128.831 66.5536 128.866 66.5609 128.9 66.5609C128.935 66.5609 128.969 66.5536 129.001 66.5395C129.247 66.4169 129.517 66.3497 129.792 66.3427C130.066 66.3358 130.339 66.3892 130.591 66.4992C130.64 66.527 130.698 66.5348 130.753 66.5208C130.808 66.5069 130.855 66.4723 130.885 66.4243C130.91 66.3743 130.915 66.3167 130.899 66.2631C130.883 66.2096 130.847 66.1642 130.798 66.1363C130.487 65.9871 130.147 65.9097 129.802 65.9097C129.457 65.9097 129.116 65.9871 128.805 66.1363C128.78 66.1473 128.757 66.1634 128.739 66.1837C128.72 66.204 128.706 66.2279 128.698 66.254C128.689 66.2801 128.686 66.3077 128.688 66.335C128.691 66.3624 128.7 66.3889 128.713 66.4128C128.726 66.4639 128.757 66.5087 128.8 66.5395Z" fill="#263238"/>
</svg>
