<svg width="21" height="15" viewBox="0 0 21 15" fill="none" xmlns="http://www.w3.org/2000/svg">
<rect width="21" height="15" rx="3" fill="#F93939"/>
<path fill-rule="evenodd" clip-rule="evenodd" d="M10.155 7.51385C7.44296 6.36585 8.64496 2.82985 11.24 3.00585C10.714 3.27585 10.638 3.77985 10.938 4.24585C11.274 4.76985 10.908 5.61085 10.454 5.81585C9.70796 6.15085 9.55896 7.04585 10.154 7.51385H10.155ZM10.382 7.39185C10.635 4.45885 14.372 4.50885 15.002 7.02985C14.584 6.61485 14.082 6.69785 13.73 7.12785C13.337 7.60785 12.424 7.51785 12.09 7.15085C11.54 6.54685 10.64 6.68085 10.382 7.39285V7.39185ZM10.474 7.68485C13.354 7.06985 14.398 10.6569 12.171 11.9989C12.447 11.4759 12.221 11.0189 11.707 10.8089C11.133 10.5729 10.951 9.67385 11.205 9.24685C11.623 8.54385 11.231 7.72385 10.475 7.68385L10.474 7.68485ZM6.74996 10.9799C7.32996 11.0799 7.69496 10.7229 7.73596 10.1699C7.78296 9.54985 8.58096 9.09985 9.06596 9.20985C9.86396 9.38985 10.523 8.76385 10.326 8.03185C11.802 10.5819 8.71296 12.6819 6.74896 10.9789L6.74996 10.9799ZM6.15296 5.49985C6.26796 6.07785 6.73096 6.28985 7.26296 6.12985C7.85796 5.95185 8.56496 6.53585 8.63596 7.02985C8.75396 7.83785 9.57396 8.22785 10.186 7.78385C8.33596 10.0739 5.26596 7.94385 6.15296 5.49885V5.49985Z" fill="white"/>
</svg>
