<svg width="40" height="40" viewBox="0 0 40 40" fill="none" xmlns="http://www.w3.org/2000/svg">
<path d="M20 4C11.1634 4 4 11.1634 4 20C4 28.8366 11.1634 36 20 36C28.8366 36 36 28.8366 36 20C36 11.1634 28.8366 4 20 4Z" fill="white"/>
<path d="M12 12H28C29.1046 12 30 12.8954 30 14V26C30 27.1046 29.1046 28 28 28H12C10.8954 28 10 27.1046 10 26V14C10 12.8954 10.8954 12 12 12Z" fill="#667EEA"/>
<path d="M14 16H26V18H14V16Z" fill="white"/>
<path d="M16 20H24V22H16V20Z" fill="white"/>
<circle cx="20" cy="24" r="2" fill="white"/>
</svg>